<svg width="380" height="390" viewBox="0 0 380 390" fill="none" xmlns="http://www.w3.org/2000/svg">
<g filter="url(#filter0_dd_601_64)">
<path fill-rule="evenodd" clip-rule="evenodd" d="M315.839 6.81401C315.839 6.81401 253.021 0.6427 190.203 0.6427C127.384 0.6427 64 6.81401 64 6.81401V188.587C64 188.587 135.307 249.739 189.637 262.643C244.532 249.739 315.839 188.587 315.839 188.587V6.81401Z" fill="#AF2F27"/>
<path fill-rule="evenodd" clip-rule="evenodd" d="M190.203 242.446C237.741 231.225 300.559 177.366 300.559 177.366V18.5955C300.559 18.5955 245.664 12.9852 190.769 12.9852C135.307 12.9852 80.412 18.5955 80.412 18.5955V177.927C80.412 177.927 142.664 231.225 190.203 242.446Z" fill="url(#paint0_linear_601_64)"/>
<path fill-rule="evenodd" clip-rule="evenodd" d="M289.241 29.255C289.241 29.255 239.439 24.2057 190.203 24.2057C140.401 24.2057 90.5989 29.255 90.5989 29.255V172.878C90.5989 172.878 147.192 221.126 190.203 231.225C233.214 221.126 289.241 172.878 289.241 172.878V29.255Z" fill="url(#paint1_linear_601_64)"/>
<path opacity="0.5" d="M90.5989 172.878V29.255C90.5989 29.255 140.401 24.2057 190.203 24.2057C240.005 24.2057 289.241 29.255 289.241 29.255V172.878C289.241 172.878 232.648 221.126 189.637 231.225C147.192 221.126 90.5989 172.878 90.5989 172.878ZM286.411 32.0601C275.658 30.9381 232.648 27.5719 190.203 27.5719C147.192 27.5719 104.181 31.4991 93.4286 32.0601V171.756C101.352 177.927 151.154 218.882 190.203 228.42C228.686 218.882 279.054 177.927 286.977 171.756V32.0601H286.411Z" fill="#934137"/>
<path d="M190.769 19.7176C138.703 19.7176 86.6372 24.7668 86.6372 24.7668V175.122L71.923 185.058V13.5463C72.0542 13.5338 130.846 7.93597 190.203 7.93597C249.059 7.93597 307.916 13.5463 307.916 13.5463L294.334 24.7668C294.334 24.7668 242.268 19.7176 190.769 19.7176Z" fill="url(#paint2_linear_601_64)"/>
<path d="M307.916 13.5462V183.538C307.916 183.538 244.428 240.382 189.602 253.84V235.897C232.466 226.925 294.488 175.218 294.334 175.122V24.7668L307.916 13.5462Z" fill="url(#paint3_linear_601_64)"/>
<path fill-rule="evenodd" clip-rule="evenodd" d="M86.6373 175.122C86.6373 175.122 144.327 225.237 189.602 235.897C189.602 240.385 189.602 248.229 189.602 253.84C138.668 242.058 71.9748 185.058 71.9748 185.058L86.6373 175.122Z" fill="url(#paint4_linear_601_64)"/>
<g filter="url(#filter1_d_601_64)">
<path fill-rule="evenodd" clip-rule="evenodd" d="M137.196 160.135C146.623 149.896 153 147.621 163.536 147.621C174.072 147.621 180.449 149.896 189.877 160.135C197.085 165.254 198.195 166.392 197.917 184.025V190.566C197.917 191.42 197.085 192.273 196.254 192.273H187.381C186.549 192.273 185.718 191.42 185.718 190.566V189.144C182.945 188.007 174.35 186.585 163.536 186.585C152.723 186.585 144.127 188.007 141.355 189.144V190.566C141.355 191.42 140.523 192.273 139.691 192.273H130.818C129.987 192.273 129.155 191.42 129.155 190.566V184.025C128.878 166.392 129.987 165.254 137.196 160.135ZM152.723 152.456C156.05 151.034 159.932 150.181 163.536 150.181C167.141 150.181 171.022 151.034 174.35 152.456C179.34 155.016 184.331 160.419 184.331 160.419C184.331 160.419 182.668 162.979 163.536 162.979C144.405 162.979 142.741 160.419 142.741 160.419C142.741 160.419 147.732 155.016 152.723 152.456ZM162.704 182.319C162.704 183.456 159.654 182.603 158.823 181.181C158.268 180.328 157.991 174.071 158.545 172.933C159.377 172.08 162.704 171.227 162.704 172.365V182.319ZM150.782 174.924C149.673 174.071 142.464 169.236 134.146 174.071C133.591 174.355 133.037 169.52 136.364 167.814C142.354 164.486 150.142 171.298 152.446 173.314C152.701 173.537 152.889 173.701 153 173.787C153.554 174.355 151.614 175.777 150.782 174.924ZM164.368 182.319C164.368 183.456 167.418 182.603 168.25 181.181C168.804 180.328 169.081 174.071 168.527 172.933C167.695 172.08 164.368 171.227 164.368 172.365V182.319ZM176.29 174.924C177.399 174.071 184.608 169.236 192.926 174.071C193.481 174.355 194.036 169.52 190.708 167.814C184.054 164.117 175.181 172.933 174.072 173.787C173.518 174.355 175.459 175.777 176.29 174.924Z" fill="url(#paint5_linear_601_64)"/>
<path fill-rule="evenodd" clip-rule="evenodd" d="M163.479 150.269C173.272 150.269 181.211 142.331 181.211 132.538C181.211 122.745 173.272 114.806 163.479 114.806C153.686 114.806 145.747 122.745 145.747 132.538C145.747 142.331 153.686 150.269 163.479 150.269ZM163.479 147.48C171.732 147.48 178.421 140.79 178.421 132.538C178.421 124.285 171.732 117.595 163.479 117.595C155.227 117.595 148.537 124.285 148.537 132.538C148.537 140.79 155.227 147.48 163.479 147.48Z" fill="#FDFDFD"/>
<path fill-rule="evenodd" clip-rule="evenodd" d="M255.553 42.8436C257.111 41.5989 259.383 41.8529 260.628 43.4109L265.094 49.0022C265.749 49.822 266.015 50.8861 265.823 51.9176L263.833 62.595L263.008 67.5017C262.861 68.3782 262.396 69.1697 261.701 69.7245L260.159 70.9568C259.464 71.5116 258.59 71.7908 257.702 71.7408L255.963 71.643C254.125 71.5396 252.504 72.8348 252.199 74.6498L251.91 76.3681C251.763 77.2447 251.298 78.0361 250.603 78.5909L249.587 79.4026C248.592 80.1976 247.252 80.4095 246.06 79.9604L241.233 78.1412C240.041 77.6921 238.701 77.904 237.706 78.699L237.216 79.0901C236.221 79.8851 235.719 81.1455 235.894 82.407L236.602 87.5165C236.777 88.7781 236.274 90.0384 235.279 90.8334L234.476 91.4753C233.656 92.1303 232.592 92.3962 231.56 92.2039L227.688 91.4822C226.657 91.2899 225.593 91.5558 224.773 92.2108L217.312 98.1715C215.754 99.4162 215.5 101.688 216.744 103.246L219.395 106.564C222.507 110.459 221.872 116.139 217.977 119.251L188.775 142.581C184.88 145.693 179.2 145.058 176.088 141.163L153.392 112.755C150.28 108.86 150.915 103.179 154.81 100.068L184.013 76.7377C187.908 73.626 193.588 74.2609 196.699 78.1559L200.154 82.4805C201.399 84.0385 203.671 84.2925 205.229 83.0478L228.779 64.2337L243.576 52.4118L250.975 46.5009L255.553 42.8436ZM179.204 111.234C177.228 108.761 173.621 108.357 171.148 110.333C168.675 112.309 168.271 115.916 170.247 118.389L176.638 126.388C178.614 128.861 182.221 129.265 184.694 127.289C187.167 125.313 187.57 121.706 185.594 119.233L179.204 111.234Z" fill="url(#paint6_linear_601_64)"/>
</g>
</g>
<defs>
<filter id="filter0_dd_601_64" x="0.743454" y="0.6427" width="378.352" height="388.513" filterUnits="userSpaceOnUse" color-interpolation-filters="sRGB">
<feFlood flood-opacity="0" result="BackgroundImageFix"/>
<feColorMatrix in="SourceAlpha" type="matrix" values="0 0 0 0 0 0 0 0 0 0 0 0 0 0 0 0 0 0 127 0" result="hardAlpha"/>
<feOffset dy="63.2565"/>
<feGaussianBlur stdDeviation="31.6283"/>
<feComposite in2="hardAlpha" operator="out"/>
<feColorMatrix type="matrix" values="0 0 0 0 0.954167 0 0 0 0 0.21421 0 0 0 0 0.166979 0 0 0 0.16 0"/>
<feBlend mode="normal" in2="BackgroundImageFix" result="effect1_dropShadow_601_64"/>
<feColorMatrix in="SourceAlpha" type="matrix" values="0 0 0 0 0 0 0 0 0 0 0 0 0 0 0 0 0 0 127 0" result="hardAlpha"/>
<feOffset dy="26.0468"/>
<feGaussianBlur stdDeviation="3.72097"/>
<feComposite in2="hardAlpha" operator="out"/>
<feColorMatrix type="matrix" values="0 0 0 0 0.417778 0 0 0 0 0.5056 0 0 0 0 0.533333 0 0 0 0.12 0"/>
<feBlend mode="normal" in2="effect1_dropShadow_601_64" result="effect2_dropShadow_601_64"/>
<feBlend mode="normal" in="SourceGraphic" in2="effect2_dropShadow_601_64" result="shape"/>
</filter>
<filter id="filter1_d_601_64" x="129.117" y="42.0538" width="136.767" height="152.213" filterUnits="userSpaceOnUse" color-interpolation-filters="sRGB">
<feFlood flood-opacity="0" result="BackgroundImageFix"/>
<feColorMatrix in="SourceAlpha" type="matrix" values="0 0 0 0 0 0 0 0 0 0 0 0 0 0 0 0 0 0 127 0" result="hardAlpha"/>
<feOffset dy="1.99368"/>
<feComposite in2="hardAlpha" operator="out"/>
<feColorMatrix type="matrix" values="0 0 0 0 0 0 0 0 0 0 0 0 0 0 0 0 0 0 0.25 0"/>
<feBlend mode="normal" in2="BackgroundImageFix" result="effect1_dropShadow_601_64"/>
<feBlend mode="normal" in="SourceGraphic" in2="effect1_dropShadow_601_64" result="shape"/>
</filter>
<linearGradient id="paint0_linear_601_64" x1="190.407" y1="242.594" x2="190.407" y2="12.8798" gradientUnits="userSpaceOnUse">
<stop offset="0.00240602" stop-color="#F0F0F0"/>
<stop offset="1" stop-color="#CACACA"/>
</linearGradient>
<linearGradient id="paint1_linear_601_64" x1="289.483" y1="127.722" x2="90.4784" y2="127.722" gradientUnits="userSpaceOnUse">
<stop stop-color="#DA2A13"/>
<stop offset="0.497282" stop-color="#A92518"/>
<stop offset="0.499419" stop-color="#FF4F39"/>
<stop offset="0.8261" stop-color="#FF9483"/>
<stop offset="0.8333" stop-color="#FF6A4E"/>
<stop offset="1" stop-color="#F3372B"/>
</linearGradient>
<linearGradient id="paint2_linear_601_64" x1="117.321" y1="149.285" x2="31.9192" y2="46.6171" gradientUnits="userSpaceOnUse">
<stop offset="0.00520833" stop-color="#D6E1E1"/>
<stop offset="0.648501" stop-color="white"/>
</linearGradient>
<linearGradient id="paint3_linear_601_64" x1="308.094" y1="213.957" x2="189.981" y2="213.957" gradientUnits="userSpaceOnUse">
<stop offset="0.00240602" stop-color="#A3AAAA"/>
<stop offset="1" stop-color="#C3D0D1"/>
</linearGradient>
<linearGradient id="paint4_linear_601_64" x1="190.42" y1="213.957" x2="71.8648" y2="213.957" gradientUnits="userSpaceOnUse">
<stop offset="0.00240602" stop-color="white"/>
<stop offset="1" stop-color="#E1EEEF"/>
</linearGradient>
<linearGradient id="paint5_linear_601_64" x1="179.135" y1="202.967" x2="167.671" y2="146.645" gradientUnits="userSpaceOnUse">
<stop stop-color="#E8F3F9"/>
<stop offset="0.3019" stop-color="#A3B7BF"/>
<stop offset="0.3653" stop-color="#A7BDC9"/>
<stop offset="0.5797" stop-color="#E9F4FE"/>
<stop offset="1" stop-color="white"/>
</linearGradient>
<linearGradient id="paint6_linear_601_64" x1="224.88" y1="123.564" x2="184.475" y2="77.5312" gradientUnits="userSpaceOnUse">
<stop stop-color="#E8F3F9"/>
<stop offset="0.3019" stop-color="#A3B7BF"/>
<stop offset="0.3653" stop-color="#A7BDC9"/>
<stop offset="0.5797" stop-color="#E9F4FE"/>
<stop offset="1" stop-color="white"/>
</linearGradient>
</defs>
</svg>
